<?xml version="1.0" encoding="utf-8"?>
<!-- Generator: Adobe Illustrator 26.0.3, SVG Export Plug-In . SVG Version: 6.00 Build 0)  -->
<svg version="1.1" id="Capa_1" xmlns="http://www.w3.org/2000/svg" xmlns:xlink="http://www.w3.org/1999/xlink" x="0px" y="0px"
	 viewBox="0 0 252.63 54" style="enable-background:new 0 0 252.63 54;" xml:space="preserve">
<style type="text/css">
	.st0{fill:#CD1719;}
	.st1{fill:#BEBEBE;}
</style>
<g>
	<g>
		<path class="st0" d="M133.9,14.42c0,3.03,1.97,4.41,4.53,4.41c3.56,0,4.38-2.35,4.38-4.59V8.11c0-1.93-1.76-1.14-1.76-1.86
			c0-0.09,0.13-0.19,0.19-0.19c0.74,0,1.48,0.08,2.22,0.08c0.36,0,0.7-0.08,1.04-0.08c0.09,0,0.25,0.1,0.25,0.21
			c0,0.53-1.12,0.11-1.12,1.86V14c0,0.93,0.23,5.61-5.28,5.61c-4.98,0-5.93-2.79-5.93-5.7V7.52c0-1.12-1.54-0.66-1.54-1.27
			c0-0.13,0.32-0.19,0.42-0.19c0.49,0,0.97,0.08,1.48,0.08c0.61,0,1.21-0.08,1.8-0.08c0.1,0,0.61-0.04,0.61,0.19
			c0,0.53-1.27,0-1.27,1.36V14.42z"/>
		<path class="st0" d="M146.09,9.8c0-3.94-2.29-2.84-2.29-3.54c0-0.11,0.19-0.19,0.28-0.19c0.3,0,0.59,0.08,0.89,0.08
			c0.29,0,0.59-0.08,0.87-0.08c0.21,0,0.38,0.3,0.49,0.44l9.04,10.06c0.11,0.13,0.19,0.21,0.23,0.21c0.04,0,0.06-0.06,0.06-0.21
			V8.64c0-2.48-2.1-1.76-2.1-2.39c0-0.13,0.09-0.19,0.21-0.19c0.57,0,1.12,0.08,1.72,0.08c0.65,0,1.46-0.08,1.91-0.08
			c0.11,0,0.19,0.06,0.19,0.17c0,0.49-1.12,0.15-1.12,1.53v10.97c0,0.55-0.02,0.82-0.17,0.82c-0.13,0-0.32-0.09-0.72-0.53
			l-8.14-9.17c-0.04-0.04-0.26-0.36-0.4-0.36c-0.08,0-0.13,0.06-0.13,0.43v7.75c0,1.71,1.67,1.04,1.67,1.55
			c0,0.1-0.02,0.25-0.21,0.25c-0.45,0-0.98-0.08-1.91-0.08c-0.67,0-1.65,0.08-1.78,0.08c-0.23,0-0.25-0.11-0.25-0.21
			c0-0.66,1.67,0.17,1.67-2.48V9.8z"/>
		<path class="st0" d="M159.47,7.69c-0.02-1.38-1.53-1-1.53-1.42c0-0.17,0.04-0.21,0.19-0.21c0.7,0,1.38,0.08,2.08,0.08
			c0.59,0,1.18-0.08,1.76-0.08c0.3,0,0.36,0.04,0.36,0.19c0,0.45-1.36,0.02-1.36,1.44v10.17c0,1.29,1.68,0.85,1.68,1.42
			c0,0.13-0.06,0.19-0.38,0.19c-0.44,0-1.25-0.08-2.07-0.08c-1.15,0-1.55,0.08-1.82,0.08c-0.34,0-0.4-0.09-0.4-0.29
			c0-0.55,1.48,0.08,1.48-1.8V7.69z"/>
		<path class="st0" d="M163.53,7.52c-0.47-1.14-1.46-0.78-1.46-1.19c0-0.17,0.09-0.27,0.26-0.27c0.59,0,1.18,0.08,1.75,0.08
			c0.51,0,1.23-0.08,1.49-0.08c0.12,0,0.27,0.08,0.27,0.19c0.02,0.27-0.78,0.28-0.78,0.97c0,0.27,0.1,0.57,0.17,0.74l3.31,7.8
			c0.42,1,0.55,1.44,0.76,1.44c0.19,0,0.25-0.3,0.34-0.53l3.3-8.13c0.11-0.28,0.34-0.89,0.26-1.29c0-0.87-1.21-0.51-1.21-0.95
			c0-0.19,0.1-0.25,0.29-0.25c0.42,0,0.83,0.08,1.25,0.08c0.91,0,1.19-0.08,1.46-0.08c0.21,0,0.32,0.08,0.32,0.25
			c0,0.42-0.53-0.06-1.06,1.21l-4.72,11.16c-0.21,0.47-0.34,1.1-0.62,1.1c-0.3,0-0.53-0.8-0.7-1.19L163.53,7.52z"/>
		<path class="st0" d="M177.55,11.58c0,0.64-0.04,0.64,0.72,0.64h2.05c1.97,0,1.46-1.52,1.91-1.52c0.15,0,0.21,0.21,0.21,0.36
			c0,0.66-0.04,1.31-0.04,1.91c0,0.49,0.04,0.98,0.04,1.49c0,0.17-0.08,0.25-0.21,0.25c-0.59,0,0.06-1.67-1.53-1.67h-2.8
			c-0.4,0-0.34,0.32-0.34,0.61v3.48c0,1.12-0.15,1.57,1.44,1.57c4.37,0,5.02-1.95,5.27-1.95c0.13,0,0.15,0.19,0.15,0.23
			c0,0.68-0.49,1.34-0.95,1.84c-0.6,0.68-1.02,0.64-1.85,0.64c-1.44,0-2.88-0.11-4.32-0.08c-0.76,0.02-1.55,0.08-2.31,0.08
			c-0.17,0-0.29-0.04-0.29-0.19c0.04-0.23,0.23-0.19,0.83-0.49c0.49-0.23,0.53-0.76,0.53-1.65V8.51c0-0.85,0-1.76-1.02-1.91
			c-0.15-0.04-0.57-0.08-0.57-0.3c0-0.15,0.12-0.23,0.66-0.23c3.58,0,4.56,0.08,5.36,0.08c0.38,0,2.12-0.08,2.71-0.08
			c0.15,0,0.19,0.19,0.19,0.42c0,2.1-0.27,2.25-0.38,2.25c-0.46,0-0.15-0.91-0.46-1.34c-0.49-0.65-2.46-0.53-3.22-0.53
			c-1.82,0-1.78-0.08-1.78,1.19V11.58z"/>
		<path class="st0" d="M193.75,17.41c1.36,2.08,2.29,1.38,2.29,1.84c0,0.23-1.06,0.23-1.23,0.23c-1.38,0-2.12-0.97-2.84-2.05
			l-2.1-3.32c-0.68-1.06-0.4-1-2.52-1c-0.61,0-0.49,0.34-0.49,0.53v4c0,1.63,1.97,1.04,1.97,1.69c0,0.19-0.17,0.15-0.32,0.15
			c-0.17,0-0.61-0.08-2.18-0.08c-0.72,0-1.44,0.08-2.16,0.08c-0.11,0-0.19-0.09-0.19-0.21c0-0.48,1.38-0.21,1.38-1.65V7.98
			c0-1.82-1.63-1.04-1.63-1.68c0-0.11,0.15-0.23,0.38-0.23c0.34,0,0.25,0.08,1.21,0.08c1.1,0,2.18-0.08,3.16-0.08
			c0.3,0,4.49-0.38,4.49,3.28c0,1.48-1.06,2.75-2.39,3.28L193.75,17.41z M186.85,12.2c0,0.36,1.17,0.27,2.06,0.27
			c0.82,0,2.63-0.34,2.63-2.69c0-2.31-1.76-3.09-3.62-3.09c-0.68,0-1.08-0.04-1.08,0.7V12.2z"/>
		<path class="st0" d="M194.89,16.12c-0.08-0.38,0.02-0.59,0.21-0.59c0.27,0,0.27,0.23,0.36,0.62c0.23,0.87,1.36,2.84,3.98,2.84
			c1.8,0,3.56-1,3.56-2.99c0-3.66-7.69-1.61-7.69-6.55c0-2.41,2.03-3.56,4.2-3.56c2.29,0,2.92,0.68,3.18,0.68
			c0.17,0,0.21-0.21,0.4-0.21c0.11,0,0.21,0.06,0.23,0.27l0.28,2.57c0.02,0.15-0.02,0.29-0.21,0.29c-0.21,0-0.34-0.4-0.4-0.57
			c-0.57-1.63-1.95-2.46-3.62-2.46c-1.5,0-3.08,0.72-3.08,2.46c0,3.56,7.69,1.48,7.69,6.71c0,1.59-1.12,3.98-5.42,3.98
			c-1.4,0-3.12-0.7-3.2-1.04L194.89,16.12z"/>
		<path class="st0" d="M205.57,7.69c-0.02-1.38-1.53-1-1.53-1.42c0-0.17,0.04-0.21,0.19-0.21c0.7,0,1.38,0.08,2.08,0.08
			c0.59,0,1.17-0.08,1.76-0.08c0.31,0,0.36,0.04,0.36,0.19c0,0.45-1.36,0.02-1.36,1.44v10.17c0,1.29,1.69,0.85,1.69,1.42
			c0,0.13-0.06,0.19-0.38,0.19c-0.44,0-1.25-0.08-2.07-0.08c-1.16,0-1.55,0.08-1.82,0.08c-0.34,0-0.4-0.09-0.4-0.29
			c0-0.55,1.48,0.08,1.48-1.8V7.69z"/>
		<path class="st0" d="M210.59,8.09c0-1.93-1.55-1.33-1.55-1.84c0-0.13,0.15-0.19,0.26-0.19c0.59,0,1.14,0.08,1.7,0.08
			c1.25,0,2.48-0.08,4.11-0.08c3.35,0,6.65,2.54,6.65,6.04c0,4.36-2.06,7.37-7.31,7.37c-0.97,0-1.93-0.08-2.9-0.08
			c-0.17,0-1.99,0.08-2.12,0.08c-0.15,0-0.19-0.08-0.19-0.19c0-0.43,1.34,0.04,1.34-1.76V8.09z M212.08,16.73
			c0,0.3-0.06,1.21,0.11,1.38c0.63,0.63,2.06,0.85,2.92,0.85c2.69,0,5.25-1.44,5.25-5.82c0-4.2-2.8-6.59-6.4-6.61
			c-1.8,0-1.87,0.31-1.87,1.2V16.73z"/>
		<path class="st0" d="M230.44,14.95c-0.19-0.43-0.31-0.72-0.83-0.72h-4.17c-0.36,0-0.7,0-0.89,0.4l-1.21,2.65
			c-0.05,0.13-0.13,0.42-0.13,0.66c0,1.33,1.35,0.76,1.35,1.25c0,0.34-0.27,0.29-0.51,0.29c-0.53,0-1.06-0.08-1.59-0.08
			c-0.51,0-1.02,0.08-1.52,0.08c-0.11,0-0.17-0.09-0.17-0.21c0-0.4,0.89-0.08,1.38-1.16l4.53-9.66c1.12-2.39,1.18-2.69,1.42-2.69
			c0.21,0,0.34,0.55,0.4,0.7l3.94,9.75c0.29,0.7,0.51,1.5,0.95,2.16c0.57,0.87,1.67,0.46,1.67,0.93c0,0.17-0.13,0.17-0.26,0.17
			c-0.78,0-1.55-0.08-2.33-0.08c-0.51,0-1.02,0.08-1.53,0.08c-0.11,0-0.42,0-0.42-0.19c0-0.45,1.14-0.27,1.14-0.99
			c0-0.42-0.4-1.29-0.59-1.8L230.44,14.95z M225.32,13.06c-0.13,0.26,0,0.34,0.25,0.34h3.75c0.42,0,0.4-0.13,0.3-0.38l-1.86-4.56
			c-0.09-0.23-0.19-0.23-0.3,0L225.32,13.06z"/>
		<path class="st0" d="M235.97,8.09c0-1.93-1.55-1.33-1.55-1.84c0-0.13,0.15-0.19,0.26-0.19c0.59,0,1.14,0.08,1.7,0.08
			c1.25,0,2.48-0.08,4.11-0.08c3.35,0,6.65,2.54,6.65,6.04c0,4.36-2.07,7.37-7.31,7.37c-0.96,0-1.93-0.08-2.9-0.08
			c-0.17,0-1.99,0.08-2.12,0.08c-0.15,0-0.19-0.08-0.19-0.19c0-0.43,1.35,0.04,1.35-1.76V8.09z M237.46,16.73
			c0,0.3-0.06,1.21,0.12,1.38c0.63,0.63,2.06,0.85,2.92,0.85c2.69,0,5.25-1.44,5.25-5.82c0-4.2-2.8-6.59-6.4-6.61
			c-1.8,0-1.88,0.31-1.88,1.2V16.73z"/>
		<path class="st0" d="M132.87,27.94c0-3.94-2.29-2.84-2.29-3.54c0-0.12,0.19-0.19,0.28-0.19c0.3,0,0.59,0.08,0.89,0.08
			c0.29,0,0.59-0.08,0.87-0.08c0.21,0,0.38,0.3,0.49,0.44l9.03,10.06c0.12,0.13,0.19,0.21,0.23,0.21c0.04,0,0.06-0.06,0.06-0.21
			v-7.92c0-2.48-2.1-1.76-2.1-2.39c0-0.14,0.1-0.19,0.21-0.19c0.57,0,1.12,0.08,1.72,0.08c0.65,0,1.46-0.08,1.91-0.08
			c0.11,0,0.19,0.06,0.19,0.17c0,0.49-1.12,0.15-1.12,1.53v10.97c0,0.55-0.02,0.81-0.17,0.81c-0.13,0-0.32-0.1-0.72-0.53l-8.15-9.17
			c-0.04-0.04-0.27-0.36-0.4-0.36c-0.08,0-0.13,0.06-0.13,0.43v7.75c0,1.7,1.67,1.04,1.67,1.55c0,0.09-0.02,0.25-0.21,0.25
			c-0.45,0-0.98-0.08-1.91-0.08c-0.66,0-1.65,0.08-1.78,0.08c-0.23,0-0.25-0.11-0.25-0.21c0-0.66,1.67,0.17,1.67-2.48V27.94z"/>
		<path class="st0" d="M157.1,33.09c-0.19-0.43-0.3-0.72-0.83-0.72h-4.17c-0.36,0-0.7,0-0.89,0.4L150,35.42
			c-0.06,0.13-0.13,0.42-0.13,0.66c0,1.32,1.35,0.76,1.35,1.25c0,0.34-0.26,0.29-0.51,0.29c-0.53,0-1.06-0.08-1.59-0.08
			c-0.51,0-1.02,0.08-1.52,0.08c-0.11,0-0.17-0.09-0.17-0.21c0-0.39,0.89-0.08,1.38-1.15l4.53-9.66c1.12-2.39,1.17-2.69,1.42-2.69
			c0.21,0,0.34,0.55,0.4,0.7l3.94,9.75c0.28,0.7,0.51,1.5,0.95,2.16c0.57,0.87,1.67,0.45,1.67,0.93c0,0.17-0.13,0.17-0.27,0.17
			c-0.78,0-1.55-0.08-2.33-0.08c-0.51,0-1.02,0.08-1.53,0.08c-0.11,0-0.42,0-0.42-0.19c0-0.45,1.14-0.26,1.14-0.99
			c0-0.41-0.4-1.29-0.59-1.8L157.1,33.09z M151.99,31.19c-0.13,0.26,0,0.34,0.25,0.34h3.75c0.41,0,0.4-0.13,0.3-0.38l-1.86-4.57
			c-0.09-0.23-0.19-0.23-0.31,0L151.99,31.19z"/>
		<path class="st0" d="M171.06,24.03c3.56,0,4.54,1.46,5.1,1.46c0.15,0,0.26-0.19,0.45-0.19c0.21,0,0.21,0.3,0.27,1.53
			c0.04,1,0.21,1.63-0.11,1.63c-0.23,0-0.36-0.49-0.44-0.62c-1.18-2.03-2.52-3.26-4.96-3.26c-3.69,0-5.47,2.46-5.47,5.98
			c0,3.29,1.89,6.59,5.53,6.59c2.97,0,4.83-1.9,5.11-2.77c0.04-0.13,0.15-0.25,0.26-0.25c0.1,0,0.19,0.12,0.17,0.21l-0.44,1.89
			c-0.02,0.08-1.36,1.5-5.62,1.5c-3.88,0-6.67-2.67-6.67-6.59C164.24,27.24,167.06,24.03,171.06,24.03z"/>
		<path class="st0" d="M181.57,25.83c-0.02-1.38-1.54-1-1.54-1.42c0-0.17,0.04-0.21,0.19-0.21c0.7,0,1.38,0.08,2.08,0.08
			c0.58,0,1.17-0.08,1.76-0.08c0.3,0,0.36,0.04,0.36,0.19c0,0.45-1.36,0.02-1.36,1.44v10.17c0,1.29,1.68,0.85,1.68,1.42
			c0,0.13-0.06,0.19-0.38,0.19c-0.43,0-1.25-0.08-2.06-0.08c-1.16,0-1.55,0.08-1.82,0.08c-0.34,0-0.4-0.09-0.4-0.29
			c0-0.55,1.48,0.08,1.48-1.8V25.83z"/>
		<path class="st0" d="M187.82,30.83c0-3.94,3.07-6.8,6.95-6.8c3.86,0,6.84,2.78,6.84,6.7c0,4.26-2.94,7.01-7.16,7.01
			C190.34,37.75,187.82,34.83,187.82,30.83z M189.2,30.29c0,3.5,2.29,6.89,6.04,6.89c2.76,0,4.98-2.22,4.98-5.72
			c0-3.45-2.33-6.8-6.02-6.8C191.02,24.66,189.2,27.29,189.2,30.29z"/>
		<path class="st0" d="M206.06,27.94c0-3.94-2.29-2.84-2.29-3.54c0-0.12,0.19-0.19,0.29-0.19c0.3,0,0.59,0.08,0.89,0.08
			c0.28,0,0.59-0.08,0.87-0.08c0.21,0,0.38,0.3,0.49,0.44l9.03,10.06c0.11,0.13,0.19,0.21,0.22,0.21c0.04,0,0.06-0.06,0.06-0.21
			v-7.92c0-2.48-2.1-1.76-2.1-2.39c0-0.14,0.09-0.19,0.21-0.19c0.57,0,1.12,0.08,1.72,0.08c0.64,0,1.46-0.08,1.91-0.08
			c0.12,0,0.19,0.06,0.19,0.17c0,0.49-1.12,0.15-1.12,1.53v10.97c0,0.55-0.02,0.81-0.17,0.81c-0.13,0-0.32-0.1-0.72-0.53l-8.15-9.17
			c-0.04-0.04-0.26-0.36-0.4-0.36c-0.08,0-0.13,0.06-0.13,0.43v7.75c0,1.7,1.67,1.04,1.67,1.55c0,0.09-0.02,0.25-0.21,0.25
			c-0.46,0-0.98-0.08-1.91-0.08c-0.67,0-1.65,0.08-1.78,0.08c-0.23,0-0.25-0.11-0.25-0.21c0-0.66,1.67,0.17,1.67-2.48V27.94z"/>
		<path class="st0" d="M229.53,33.09c-0.19-0.43-0.3-0.72-0.83-0.72h-4.17c-0.36,0-0.7,0-0.89,0.4l-1.21,2.65
			c-0.06,0.13-0.13,0.42-0.13,0.66c0,1.32,1.34,0.76,1.34,1.25c0,0.34-0.26,0.29-0.51,0.29c-0.53,0-1.06-0.08-1.59-0.08
			c-0.51,0-1.02,0.08-1.51,0.08c-0.12,0-0.17-0.09-0.17-0.21c0-0.39,0.89-0.08,1.38-1.15l4.53-9.66c1.12-2.39,1.18-2.69,1.42-2.69
			c0.21,0,0.34,0.55,0.4,0.7l3.94,9.75c0.28,0.7,0.51,1.5,0.95,2.16c0.57,0.87,1.67,0.45,1.67,0.93c0,0.17-0.13,0.17-0.27,0.17
			c-0.77,0-1.55-0.08-2.33-0.08c-0.51,0-1.02,0.08-1.53,0.08c-0.12,0-0.42,0-0.42-0.19c0-0.45,1.14-0.26,1.14-0.99
			c0-0.41-0.4-1.29-0.59-1.8L229.53,33.09z M224.42,31.19c-0.13,0.26,0,0.34,0.25,0.34h3.75c0.42,0,0.4-0.13,0.31-0.38l-1.86-4.57
			c-0.1-0.23-0.19-0.23-0.3,0L224.42,31.19z"/>
		<path class="st0" d="M240.39,35.28c0,1.12-0.15,1.57,1.44,1.57c4.38,0,5.02-1.95,5.27-1.95c0.13,0,0.15,0.18,0.15,0.22
			c0,0.68-0.49,1.34-0.95,1.84c-0.61,0.68-1.02,0.64-1.85,0.64c-1.44,0-2.88-0.11-4.32-0.08c-0.76,0.02-1.55,0.08-2.31,0.08
			c-0.17,0-0.28-0.04-0.28-0.19c0.04-0.23,0.23-0.19,0.83-0.49c0.49-0.23,0.53-0.76,0.53-1.65v-9.6c0-0.98-1.59-0.85-1.59-1.23
			c0-0.21,0.13-0.25,0.38-0.25c0.4,0,0.99,0.08,1.91,0.08c1.08,0,1.53-0.08,1.82-0.08c0.25,0,0.36,0.04,0.36,0.27
			c0,0.44-1.38-0.04-1.38,1.61V35.28z"/>
		<path class="st0" d="M134.32,42.64c1.77,0,2.26,0.73,2.53,0.73c0.08,0,0.13-0.1,0.23-0.1c0.1,0,0.1,0.15,0.13,0.76
			c0.02,0.5,0.1,0.81-0.05,0.81c-0.11,0-0.18-0.25-0.22-0.31c-0.58-1.01-1.25-1.62-2.47-1.62c-1.84,0-2.73,1.23-2.73,2.98
			c0,1.64,0.95,3.28,2.75,3.28c1.48,0,2.4-0.94,2.55-1.38c0.02-0.07,0.08-0.13,0.13-0.13c0.05,0,0.09,0.06,0.09,0.1l-0.22,0.94
			c-0.01,0.04-0.68,0.74-2.8,0.74c-1.94,0-3.32-1.33-3.32-3.28C130.93,44.23,132.33,42.64,134.32,42.64z"/>
		<path class="st0" d="M144.3,46.03c0-1.96,1.53-3.38,3.46-3.38c1.92,0,3.4,1.38,3.4,3.34c0,2.12-1.46,3.48-3.56,3.48
			C145.55,49.47,144.3,48.01,144.3,46.03z M144.98,45.75c0,1.75,1.14,3.43,3.01,3.43c1.38,0,2.48-1.1,2.48-2.85
			c0-1.72-1.16-3.38-3-3.38C145.89,42.95,144.98,44.26,144.98,45.75z"/>
		<path class="st0" d="M158.28,47.73c-0.04-0.19,0.01-0.29,0.1-0.29c0.13,0,0.13,0.11,0.18,0.31c0.11,0.44,0.68,1.42,1.98,1.42
			c0.9,0,1.77-0.5,1.77-1.49c0-1.82-3.83-0.8-3.83-3.26c0-1.2,1.01-1.77,2.09-1.77c1.14,0,1.45,0.34,1.58,0.34
			c0.09,0,0.1-0.1,0.2-0.1c0.06,0,0.1,0.02,0.11,0.13l0.14,1.28c0.01,0.08-0.01,0.14-0.1,0.14c-0.1,0-0.17-0.2-0.2-0.28
			c-0.28-0.81-0.97-1.23-1.8-1.23c-0.74,0-1.54,0.36-1.54,1.23c0,1.77,3.83,0.73,3.83,3.34c0,0.79-0.55,1.98-2.69,1.98
			c-0.7,0-1.56-0.35-1.59-0.52L158.28,47.73z"/>
		<path class="st0" d="M172.5,43.68c0-0.07,0.04-0.42-0.09-0.43h-1.54c-0.58,0-0.6,0.14-0.77,0.66c-0.03,0.09-0.04,0.21-0.16,0.21
			c-0.06,0-0.09-0.07-0.09-0.11l0.1-0.92c0.01-0.11,0-0.37,0.17-0.37c0.74,0,1.46,0.04,2.68,0.04c1.71,0,2.57-0.04,2.76-0.04
			c0.22,0,0.27,0.06,0.27,0.27l0.05,0.75c0.01,0.09,0.02,0.21-0.1,0.21c-0.35,0,0.16-0.72-0.8-0.72h-1.35
			c-0.43,0-0.38-0.04-0.38,0.46v4.81c0,0.79,0.76,0.48,0.76,0.77c0,0.03,0.01,0.11-0.08,0.11c-0.23,0-0.49-0.04-0.77-0.04
			c-1.05,0-1.23,0.04-1.29,0.04c-0.08,0-0.11-0.03-0.11-0.12c0-0.23,0.74-0.13,0.74-0.7V43.68z"/>
		<path class="st0" d="M186.64,47.15c-0.1-0.22-0.15-0.36-0.42-0.36h-2.07c-0.18,0-0.35,0-0.44,0.2l-0.6,1.32
			c-0.03,0.07-0.06,0.21-0.06,0.33c0,0.66,0.67,0.38,0.67,0.62c0,0.17-0.13,0.14-0.25,0.14c-0.26,0-0.53-0.04-0.79-0.04
			c-0.25,0-0.51,0.04-0.75,0.04c-0.06,0-0.09-0.04-0.09-0.1c0-0.2,0.44-0.04,0.69-0.58l2.25-4.81c0.56-1.19,0.58-1.34,0.71-1.34
			c0.1,0,0.17,0.27,0.2,0.35l1.96,4.85c0.14,0.35,0.26,0.75,0.47,1.07c0.28,0.44,0.83,0.23,0.83,0.47c0,0.08-0.06,0.08-0.13,0.08
			c-0.39,0-0.77-0.04-1.16-0.04c-0.26,0-0.51,0.04-0.76,0.04c-0.06,0-0.21,0-0.21-0.1c0-0.22,0.57-0.13,0.57-0.49
			c0-0.2-0.2-0.64-0.29-0.9L186.64,47.15z M184.1,46.21c-0.07,0.13,0,0.17,0.12,0.17h1.87c0.21,0,0.2-0.06,0.15-0.19l-0.92-2.27
			c-0.05-0.11-0.09-0.11-0.15,0L184.1,46.21z"/>
		<path class="st0" d="M209.65,48.37c0.68,1.04,1.14,0.69,1.14,0.92c0,0.11-0.53,0.11-0.61,0.11c-0.69,0-1.06-0.48-1.41-1.02
			l-1.05-1.65c-0.34-0.53-0.2-0.5-1.25-0.5c-0.3,0-0.25,0.17-0.25,0.26v1.99c0,0.81,0.98,0.52,0.98,0.84c0,0.09-0.09,0.08-0.16,0.08
			c-0.09,0-0.3-0.04-1.09-0.04c-0.36,0-0.71,0.04-1.07,0.04c-0.06,0-0.09-0.04-0.09-0.1c0-0.24,0.69-0.1,0.69-0.82v-4.8
			c0-0.9-0.81-0.52-0.81-0.84c0-0.06,0.08-0.12,0.19-0.12c0.17,0,0.12,0.04,0.6,0.04c0.55,0,1.08-0.04,1.58-0.04
			c0.15,0,2.24-0.19,2.24,1.63c0,0.73-0.53,1.36-1.19,1.63L209.65,48.37z M206.22,45.78c0,0.18,0.59,0.13,1.03,0.13
			c0.41,0,1.31-0.17,1.31-1.34c0-1.15-0.88-1.54-1.8-1.54c-0.34,0-0.54-0.02-0.54,0.35V45.78z"/>
		<path class="st0" d="M218.54,43.54c-0.01-0.69-0.76-0.5-0.76-0.71c0-0.08,0.02-0.1,0.09-0.1c0.35,0,0.69,0.04,1.04,0.04
			c0.3,0,0.59-0.04,0.88-0.04c0.15,0,0.18,0.02,0.18,0.1c0,0.22-0.68,0.01-0.68,0.72v5.06c0,0.64,0.84,0.42,0.84,0.71
			c0,0.07-0.03,0.1-0.19,0.1c-0.21,0-0.62-0.04-1.03-0.04c-0.57,0-0.77,0.04-0.9,0.04c-0.17,0-0.2-0.04-0.2-0.14
			c0-0.27,0.73,0.04,0.73-0.9V43.54z"/>
		<path class="st0" d="M230.71,42.64c1.77,0,2.26,0.73,2.54,0.73c0.07,0,0.13-0.1,0.23-0.1c0.1,0,0.1,0.15,0.13,0.76
			c0.02,0.5,0.1,0.81-0.05,0.81c-0.12,0-0.18-0.25-0.22-0.31c-0.59-1.01-1.25-1.62-2.47-1.62c-1.84,0-2.73,1.23-2.73,2.98
			c0,1.64,0.94,3.28,2.75,3.28c1.48,0,2.4-0.94,2.55-1.38c0.02-0.07,0.08-0.13,0.13-0.13c0.04,0,0.09,0.06,0.08,0.1l-0.22,0.94
			c-0.01,0.04-0.68,0.74-2.8,0.74c-1.93,0-3.32-1.33-3.32-3.28C227.32,44.23,228.72,42.64,230.71,42.64z"/>
		<path class="st0" d="M245.36,47.15c-0.09-0.22-0.15-0.36-0.41-0.36h-2.07c-0.18,0-0.35,0-0.44,0.2l-0.6,1.32
			c-0.03,0.07-0.07,0.21-0.07,0.33c0,0.66,0.67,0.38,0.67,0.62c0,0.17-0.13,0.14-0.26,0.14c-0.26,0-0.53-0.04-0.79-0.04
			c-0.25,0-0.51,0.04-0.75,0.04c-0.06,0-0.09-0.04-0.09-0.1c0-0.2,0.44-0.04,0.69-0.58l2.25-4.81c0.56-1.19,0.59-1.34,0.71-1.34
			c0.1,0,0.17,0.27,0.2,0.35l1.96,4.85c0.14,0.35,0.25,0.75,0.47,1.07c0.28,0.44,0.83,0.23,0.83,0.47c0,0.08-0.07,0.08-0.13,0.08
			c-0.39,0-0.77-0.04-1.16-0.04c-0.25,0-0.51,0.04-0.76,0.04c-0.05,0-0.2,0-0.2-0.1c0-0.22,0.57-0.13,0.57-0.49
			c0-0.2-0.2-0.64-0.29-0.9L245.36,47.15z M242.81,46.21c-0.06,0.13,0,0.17,0.12,0.17h1.87c0.21,0,0.2-0.06,0.15-0.19l-0.92-2.27
			c-0.05-0.11-0.09-0.11-0.15,0L242.81,46.21z"/>
		<rect x="130.8" y="21.6" class="st1" width="115.92" height="0.7"/>
		<rect x="1.78" y="1.59" class="st1" width="244.94" height="1.81"/>
		<rect x="1.78" y="51.85" class="st1" width="244.94" height="1.82"/>
		<rect x="130.8" y="39.64" class="st1" width="115.92" height="0.7"/>
	</g>
	<path class="st0" d="M11.54,32.77c0,9.71,6.31,14.14,14.51,14.14c11.41,0,14.02-7.53,14.02-14.69V12.56c0-6.19-5.64-3.64-5.64-5.95
		c0-0.3,0.42-0.61,0.61-0.61c2.37,0,4.74,0.24,7.1,0.24c1.15,0,2.25-0.24,3.34-0.24c0.31,0,0.79,0.3,0.79,0.67
		c0,1.7-3.58,0.36-3.58,5.95v18.82c0,2.98,0.73,17.97-16.94,17.97c-15.97,0-19-8.92-19-18.27V10.68c0-3.58-4.92-2.12-4.92-4.07
		C1.83,6.19,2.86,6,3.16,6c1.58,0,3.1,0.24,4.74,0.24C9.84,6.25,11.78,6,13.66,6c0.3,0,1.94-0.12,1.94,0.61c0,1.7-4.07,0-4.07,4.37
		V32.77z"/>
	<path class="st0" d="M50.62,17.96c0-12.63-7.34-9.1-7.34-11.35c0-0.36,0.61-0.61,0.91-0.61c0.97,0,1.88,0.24,2.85,0.24
		c0.91,0,1.88-0.24,2.79-0.24c0.67,0,1.21,0.97,1.58,1.4l28.96,32.23c0.36,0.43,0.6,0.67,0.72,0.67c0.12,0,0.18-0.18,0.18-0.67
		V14.26c0-7.95-6.74-5.64-6.74-7.65c0-0.43,0.31-0.61,0.67-0.61c1.82,0,3.58,0.24,5.52,0.24c2.06,0,4.68-0.24,6.13-0.24
		c0.36,0,0.61,0.18,0.61,0.55c0,1.58-3.58,0.49-3.58,4.92v35.15c0,1.76-0.06,2.61-0.55,2.61c-0.42,0-1.03-0.31-2.31-1.7l-26.1-29.38
		c-0.12-0.12-0.85-1.15-1.28-1.15c-0.24,0-0.42,0.18-0.42,1.4v24.83c0,5.46,5.34,3.34,5.34,4.98c0,0.31-0.06,0.79-0.67,0.79
		c-1.46,0-3.16-0.24-6.13-0.24c-2.12,0-5.28,0.24-5.71,0.24c-0.73,0-0.79-0.36-0.79-0.67c0-2.13,5.34,0.54,5.34-7.95V17.96z"/>
	<path class="st0" d="M113.98,34.47c-0.61-1.4-0.97-2.31-2.67-2.31H97.96c-1.15,0-2.25,0-2.85,1.28l-3.89,8.5
		c-0.18,0.43-0.43,1.34-0.43,2.13c0,4.25,4.31,2.43,4.31,4.01c0,1.09-0.85,0.91-1.64,0.91c-1.7,0-3.4-0.24-5.1-0.24
		c-1.64,0-3.28,0.24-4.85,0.24c-0.37,0-0.55-0.31-0.55-0.67c0-1.28,2.85-0.24,4.43-3.7l14.51-30.96c3.58-7.65,3.76-8.62,4.55-8.62
		c0.67,0,1.09,1.76,1.28,2.25l12.63,31.26c0.91,2.25,1.64,4.8,3.03,6.92c1.82,2.79,5.34,1.46,5.34,2.98c0,0.55-0.42,0.55-0.85,0.55
		c-2.49,0-4.98-0.24-7.47-0.24c-1.64,0-3.28,0.24-4.92,0.24c-0.37,0-1.34,0-1.34-0.61c0-1.46,3.64-0.85,3.64-3.15
		c0-1.34-1.27-4.13-1.88-5.77L113.98,34.47z M97.59,28.4c-0.42,0.85,0,1.09,0.79,1.09h12.02c1.33,0,1.27-0.42,0.97-1.22l-5.95-14.63
		c-0.3-0.73-0.61-0.73-0.97,0L97.59,28.4z"/>
</g>
</svg>
